<?xml version="1.0" encoding="utf-8"?>
<!-- Generator: Adobe Illustrator 22.0.0, SVG Export Plug-In . SVG Version: 6.00 Build 0)  -->
<svg version="1.1" id="Layer_1" xmlns="http://www.w3.org/2000/svg" xmlns:xlink="http://www.w3.org/1999/xlink" x="0px" y="0px"
	 viewBox="0 0 300 80" style="enable-background:new 0 0 300 80;" xml:space="preserve">
<style type="text/css">
	.st0{fill:#FFFFFF;}
</style>
<path d="M100.3,11.1c0,0.3-0.2,0.5-0.5,0.8c-0.4,0.3-0.7,0.4-0.9,0.4c-0.1,0-0.2,0.1-0.4,0.4c-0.2,0.3-0.4,0.5-0.5,0.5
	c-1.1,1.7-1.6,5.2-1.6,10.7c0,8.5,0.5,14.3,1.6,17.3c0,0.1,0.4,0.9,1,2.3c0.5,1.2,0.8,1.8,0.8,2c0,0.8-0.3,1.3-0.9,1.7
	c-0.6,0.4-1.2,0.6-2,0.6c-1.1,0-2.1-1.5-3-4.4c-1.5-4.9-2.3-10.1-2.3-15.9c0-3.1,0.5-6.9,1.4-11.3c1.2-5.9,2.7-8.8,4.5-8.8
	c0.9,0,1.5,0.4,2.1,1.1C100,9.4,100.3,10.2,100.3,11.1z"/>
<path d="M117.1,43c0-0.8,0.4-1.5,1.1-2.1c0.7-0.6,1.5-0.9,2.4-0.9c1,0,1.8,0.4,2.6,1.3c0.7,0.9,1.1,2,1.1,3.3c0,1.4-0.1,2.6-0.4,3.5
	c-0.3,0.9-0.8,1.8-1.4,2.7c-0.7,0.9-1.5,1.6-2.3,2.3c-0.9,0.6-1.6,0.9-2.3,0.9c-0.5-0.1-0.9-0.3-1.2-0.6c-0.3-0.4-0.2-0.8,0.2-1.3
	c0.7-0.4,1.3-0.8,1.9-1.4c0.6-0.5,1-1.2,1.3-2.1c0.2-0.5,0.2-1,0.2-1.6c-0.1-0.6-0.4-1-0.9-1.4c-0.6-0.4-1.1-0.8-1.5-1.1
	S117.1,43.7,117.1,43z"/>
<path d="M124.7,22.7c-1.3-0.7-2.8-1-4.3-1c-3.3,0-5,1.5-5,4.4c0,3.3,1.7,4.9,5.1,4.9c1.6,0,3.1-0.4,4.5-1.3c1.4-0.9,2.1-2.1,2.1-3.6
	C127,24.7,126.2,23.5,124.7,22.7z"/>
<path class="st0" d="M120.2,30.5c-0.6,0-1.3-0.1-1.9-0.4c-1.4-0.5-1.8-1.8-1.6-2c0.5-0.4,0.3,0.5,2.2,1.3c1.1,0.5,2.4,0.3,2.5,0.5
	C121.5,30.3,120.8,30.5,120.2,30.5z"/>
<path class="st0" d="M124.5,25.5c-0.3,0.2-0.6,0.3-1,0.3c-0.8,0-1.1-0.4-1.1-1.1c0-0.7,0.4-1,1.1-1c0.3,0,0.7,0.1,1,0.2
	c0.3,0.2,0.5,0.4,0.5,0.8C125,25,124.8,25.3,124.5,25.5z"/>
<path d="M162.1,43c0-0.8,0.4-1.5,1.1-2.1c0.7-0.6,1.5-0.9,2.4-0.9c1,0,1.8,0.4,2.6,1.3c0.7,0.9,1.1,2,1.1,3.3c0,1.4-0.1,2.6-0.4,3.5
	c-0.3,0.9-0.8,1.8-1.4,2.7c-0.7,0.9-1.5,1.6-2.3,2.3c-0.9,0.6-1.6,0.9-2.3,0.9c-0.5-0.1-0.9-0.3-1.2-0.6c-0.3-0.4-0.2-0.8,0.2-1.3
	c0.7-0.4,1.3-0.8,1.9-1.4c0.6-0.5,1-1.2,1.3-2.1c0.2-0.5,0.2-1,0.2-1.6c-0.1-0.6-0.4-1-0.9-1.4c-0.6-0.4-1.1-0.8-1.5-1.1
	S162.1,43.7,162.1,43z"/>
<path d="M169.7,22.7c-1.3-0.7-2.8-1-4.3-1c-3.3,0-5,1.5-5,4.4c0,3.3,1.7,4.9,5.1,4.9c1.6,0,3.1-0.4,4.5-1.3c1.4-0.9,2.1-2.1,2.1-3.6
	C172,24.7,171.2,23.5,169.7,22.7z"/>
<path class="st0" d="M165.2,30.5c-0.6,0-1.3-0.1-1.9-0.4c-1.4-0.5-1.8-1.8-1.6-2c0.5-0.4,0.3,0.5,2.2,1.3c1.1,0.5,2.4,0.3,2.5,0.5
	C166.5,30.3,165.8,30.5,165.2,30.5z"/>
<path class="st0" d="M169.5,25.5c-0.3,0.2-0.6,0.3-1,0.3c-0.8,0-1.1-0.4-1.1-1.1c0-0.7,0.4-1,1.1-1c0.3,0,0.7,0.1,1,0.2
	c0.3,0.2,0.5,0.4,0.5,0.8C170,25,169.8,25.3,169.5,25.5z"/>
<path d="M140,46c0-0.8,0.3-1.5,1.1-2.1c0.7-0.6,1.5-0.9,2.4-0.9c1,0,1.8,0.4,2.6,1.3c0.7,0.9,1.1,2,1.1,3.3c0,1.4-0.1,2.6-0.4,3.5
	c-0.3,0.9-0.8,1.8-1.4,2.7c-0.7,0.9-1.5,1.6-2.3,2.3c-0.9,0.6-1.6,0.9-2.3,0.9c-0.5-0.1-0.9-0.3-1.2-0.6c-0.3-0.4-0.2-0.8,0.2-1.3
	c0.7-0.4,1.3-0.8,1.9-1.4c0.6-0.5,1-1.2,1.3-2.1c0.2-0.5,0.2-1,0.2-1.6c-0.1-0.6-0.4-1-0.9-1.4c-0.6-0.4-1.1-0.8-1.5-1.1
	S140,46.7,140,46z"/>
<path d="M195.5,28.5c0,5.6-0.9,10.7-2.7,15.2c-0.9,2.1-1.8,3.2-2.9,3.2c-0.6,0-1.3-0.2-1.9-0.7c-0.7-0.5-1-1-1-1.6
	c0-0.4,0.2-0.7,0.5-1c0.3-0.3,0.8-0.7,1.4-1.4c1.4-2,2.1-5.5,2.1-10.5c0-3.6-0.2-7-0.5-10.2c-0.5-4.7-1.4-7.7-2.5-8.8
	c0,0-0.3-0.3-0.9-0.7c-0.4-0.3-0.6-0.6-0.6-0.8c0-0.9,0.3-1.6,0.8-2.2c0.5-0.6,1.2-0.9,2-0.9c0.5,0,0.9,0.1,1.4,0.2
	c1.6,1.8,2.9,5,3.8,9.5C195.2,21.5,195.5,25,195.5,28.5z"/>
<path d="M44,23c4-2,11-6.6,13.4-6.6c2.5,0,6.7,1,21.6,10.6l2.7,0.9c-1.5,1.4-2.7,2.1-3.6,2.1c-2.5,0-5.4-1-8.9-3.1
	c-4.2-2.5-7-4-8.5-4.5c-0.7-0.1-1.9-0.4-3.3-0.9c-1.5,0.5-3.7,1.3-6.7,2.6C43.9,28,39.2,30,36.6,30c-0.9,0-2.6,0-3.6-2.1
	C33,27.9,41.9,24,44,23z"/>
<path d="M217,24c4-2,11-7.6,13.4-7.6c2.5,0,6.7,2,21.6,11.6l2.7,0.9c-1.5,1.4-2.7,2.1-3.6,2.1c-2.5,0-5.4-1-8.9-3.1
	c-4.2-2.5-7-4-8.5-4.5c-0.7-0.1-1.9-0.4-3.3-0.9c-1.5,0.5-3.7,1.3-6.7,2.6c-6.8,3.9-11.5,5.9-14.1,5.9c-0.9,0-2.6,0-3.6-2.1
	C206,28.9,214.9,25,217,24z"/>
<g>
	<path d="M48.5,75h-6.6l-5.3-5.9h-5.8V75h-4.7V59.5h15.3c4.9,0,7.3,1.8,7.3,4.8c0,2.7-2,4.4-6,4.8L48.5,75z M30.8,62.8v2.8h10.6
		c1.4,0,2.3-0.5,2.3-1.4c0-0.9-0.9-1.3-2.3-1.3H30.8z"/>
	<path d="M81.6,75h-4.8V59.5h4.8V75z"/>
	<path d="M126.9,63.8c-0.8-1.4-2.6-1.8-5.4-1.8c-3.9,0-5.9,0.6-5.9,1.8c0,1.6,2,1.6,4.8,1.6c1.9,0,3.8,0,5.7,0.1
		c2.4,0.2,3.6,0.6,4.7,1.3c0.8,0.6,1.4,1.4,1.4,2.9c0,3.5-3.1,5.7-10.9,5.7c-3.8,0-5.8-0.3-7.2-0.8c-2.5-1-3.7-2.1-3.9-4.4h5.2
		c0.3,1.4,3.3,2,6.3,2c3.2,0,5.6-0.6,5.6-2.1c0-2.2-6.5-1-11.2-1.7c-2.7-0.4-5.4-1.3-5.4-4.6c0-3,2.9-4.9,10.9-4.9
		c6.7,0,9.4,1.6,10.2,4.7L126.9,63.8z"/>
	<path d="M165.4,75h-4.8V59.5h4.8V75z"/>
	<path d="M217.8,75h-4.9l-13.2-10.7V75h-5V59.5h5.1l13.1,10.3V59.5h5V75z"/>
	<path d="M267.3,64.4c-3-1.5-5.9-2.1-9.1-2.1c-4.4,0-7.2,1.9-7.2,4.9s2.6,4.9,7.2,4.9c2.5,0,5.3-0.3,6.3-1v-1.4H260v-3.2h9.3v7.2
		c-1.6,0.8-5.3,1.7-11.4,1.7c-6.6,0-11.8-3-11.8-8.3c0-5.2,5.5-8.3,12-8.3c5.1,0,9.8,1.2,11.3,2.1L267.3,64.4z"/>
</g>
<g>
</g>
<g>
</g>
<g>
</g>
<g>
</g>
<g>
</g>
<g>
</g>
<g>
</g>
<g>
</g>
<g>
</g>
<g>
</g>
<g>
</g>
<g>
</g>
<g>
</g>
<g>
</g>
<g>
</g>
</svg>
